<?xml version="1.0" encoding="utf-8"?>
<!-- Generator: Adobe Illustrator 19.0.0, SVG Export Plug-In . SVG Version: 6.00 Build 0)  -->
<svg version="1.1" id="Layer_1" xmlns="http://www.w3.org/2000/svg" xmlns:xlink="http://www.w3.org/1999/xlink" x="0px" y="0px"
	 viewBox="0 0 16.6 16.6" style="enable-background:new 0 0 16.6 16.6;" xml:space="preserve">
<style type="text/css">
	.st0{fill:#28337E;}
</style>
<g id="XMLID_1_">
	<path id="XMLID_4_" class="st0" d="M12.3,11.1c-0.5-0.5-1.2-0.5-1.7,0c-0.4,0.4-0.8,0.8-1.2,1.2c-0.1,0.1-0.2,0.1-0.3,0.1
		c-0.3-0.1-0.5-0.3-0.8-0.4c-1.2-0.7-2.1-1.7-3-2.7C4.8,8.7,4.5,8.2,4.2,7.5c-0.1-0.1,0-0.2,0.1-0.3C4.7,6.8,5,6.4,5.4,6.1
		C6,5.5,6,4.9,5.4,4.3C5.1,4,4.8,3.7,4.5,3.4c-0.3-0.3-0.6-0.6-1-1C3,1.9,2.3,1.9,1.8,2.4C1.4,2.8,1,3.2,0.6,3.6
		C0.2,3.9,0.1,4.4,0,4.9C0,5.7,0.2,6.5,0.4,7.3c0.6,1.6,1.5,3,2.6,4.3c1.5,1.8,3.2,3.1,5.3,4.1c0.9,0.5,1.9,0.8,2.9,0.9
		c0.7,0,1.3-0.1,1.8-0.7c0.3-0.4,0.7-0.7,1.1-1.1c0.5-0.5,0.5-1.2,0-1.7C13.5,12.4,12.9,11.8,12.3,11.1"/>
	<path id="XMLID_3_" class="st0" d="M11.6,4.9C10.7,4,9.5,3.4,8.2,3.2C8,3.2,7.7,3.4,7.7,3.6L7.5,4.9c0,0.3,0.1,0.5,0.4,0.5
		c0.8,0.1,1.6,0.5,2.2,1.1C10.7,7,11,7.7,11.2,8.5c0,0.2,0.2,0.4,0.5,0.4c0,0,0.1,0,0.1,0l1.2-0.2c0.1,0,0.2-0.1,0.3-0.2
		c0.1-0.1,0.1-0.2,0.1-0.3C13.1,6.9,12.5,5.8,11.6,4.9"/>
	<path id="XMLID_2_" class="st0" d="M16.6,8c-0.3-2-1.3-3.8-2.7-5.2l0,0C12.4,1.2,10.5,0.3,8.4,0C8.1,0,7.9,0.1,7.9,0.4L7.7,1.6
		c0,0.1,0,0.2,0.1,0.3C7.9,2.1,8,2.1,8.1,2.2c1.6,0.2,3.1,1,4.3,2.1c1.1,1.1,1.8,2.5,2.1,4c0,0.2,0.2,0.4,0.5,0.4c0,0,0.1,0,0.1,0
		l1.2-0.2c0.1,0,0.2-0.1,0.3-0.2C16.6,8.2,16.6,8.1,16.6,8"/>
</g>
</svg>
