<?xml version="1.0" encoding="utf-8"?>
<!-- Generator: Adobe Illustrator 19.0.0, SVG Export Plug-In . SVG Version: 6.00 Build 0)  -->
<svg version="1.1" id="Layer_1" xmlns="http://www.w3.org/2000/svg" xmlns:xlink="http://www.w3.org/1999/xlink" x="0px" y="0px"
	 viewBox="0 0 14 14" style="enable-background:new 0 0 14 14;" xml:space="preserve">
<style type="text/css">
	.st0{fill:#FFFFFF;}
	.st1{fill:#0B1541;}
</style>
<g id="XMLID_1_">
	<path id="XMLID_3_" class="st0" d="M11.9,2C9.2-0.7,4.8-0.7,2,2.1c-2.7,2.7-2.7,7.2,0,9.9c2.7,2.7,7.2,2.7,9.9,0
		C13.3,10.6,14,8.9,14,7C14,5.1,13.3,3.4,11.9,2"/>
	<path id="XMLID_2_" class="st1" d="M10.6,9.7l-0.4,0.4c-0.5,0.5-1.1,0.7-1.8,0.5c-0.6-0.2-1.2-0.4-1.8-0.8c-0.5-0.3-1-0.7-1.4-1.1
		C4.9,8.3,4.5,7.8,4.2,7.4c-0.3-0.5-0.6-1-0.8-1.6c-0.2-0.7,0-1.4,0.5-1.9l0.4-0.4c0.1-0.1,0.3-0.1,0.4,0c0,0,0,0,0,0L6,4.7
		C6.1,4.9,6.1,5,6,5.2c0,0,0,0,0,0L5.2,5.9C5,6.1,5,6.5,5.2,6.7c0.3,0.4,0.6,0.7,0.9,1.1c0.4,0.4,0.8,0.7,1.2,1C7.6,9,7.9,9,8.1,8.8
		L8.9,8C9,7.9,9.2,7.9,9.3,8l0,0l1.3,1.3C10.7,9.4,10.7,9.6,10.6,9.7L10.6,9.7L10.6,9.7z"/>
</g>
</svg>
