<?xml version="1.0" encoding="utf-8"?>
<!-- Generator: Adobe Illustrator 19.0.0, SVG Export Plug-In . SVG Version: 6.00 Build 0)  -->
<svg version="1.1" id="Layer_1" xmlns="http://www.w3.org/2000/svg" xmlns:xlink="http://www.w3.org/1999/xlink" x="0px" y="0px"
	 viewBox="0 0 21.5 23.1" style="enable-background:new 0 0 21.5 23.1;" xml:space="preserve">
<style type="text/css">
	.st0{fill:#FEFEFE;}
</style>
<path id="XMLID_2_" class="st0" d="M18.9,14H6.1c-0.7,0-1.3-0.6-1.3-1.3V5.7l15.4,2.1v4.8C20.2,13.4,19.6,14,18.9,14 M19.6,20.5
	c0,0.7-0.6,1.3-1.3,1.3c-0.7,0-1.3-0.6-1.3-1.3c0-0.7,0.6-1.3,1.3-1.3C19,19.2,19.6,19.8,19.6,20.5 M9.3,20.5c0,0.7-0.6,1.3-1.3,1.3
	c-0.7,0-1.3-0.6-1.3-1.3c0-0.7,0.6-1.3,1.3-1.3C8.7,19.2,9.3,19.8,9.3,20.5 M6.1,15.2h12.7c1.4,0,2.6-1.2,2.6-2.6V7.2c0,0,0,0,0,0
	c0,0,0,0,0,0c0,0,0,0,0,0c0,0,0,0,0,0c0,0,0,0,0,0c0,0,0,0,0,0s0,0,0,0c0,0,0,0,0,0l0,0c0,0,0,0,0,0c0,0,0,0,0,0s0,0,0,0
	c0,0,0,0,0,0c0,0,0,0,0,0c0,0,0,0,0,0l0,0c0,0,0,0,0,0c0,0,0,0,0,0c0,0,0,0,0,0c0,0,0,0,0,0l0,0l0,0l0,0c0,0,0,0,0,0c0,0,0,0,0,0
	c0,0,0,0,0,0c0,0,0,0,0,0c0,0,0,0,0,0L4.8,4.4V2.1c0,0,0,0,0-0.1c0,0,0,0,0,0c0,0,0,0,0,0c0,0,0,0,0,0c0,0,0,0,0,0l0,0c0,0,0,0,0,0
	c0,0,0,0,0,0c0,0,0,0,0,0c0,0,0,0,0,0c0,0,0,0,0,0c0,0,0,0,0,0c0,0,0,0,0,0l0,0l0,0c0,0,0,0,0,0c0,0,0,0,0,0c0,0,0,0,0,0
	c0,0,0,0,0,0c0,0,0,0,0,0c0,0,0,0-0.1,0L0.9,0.1c-0.3-0.1-0.7,0-0.8,0.3c-0.1,0.3,0,0.7,0.3,0.8l3.1,1.3v14.1c0,1.3,1,2.4,2.3,2.6
	c-0.2,0.4-0.4,0.8-0.4,1.3c0,1.4,1.2,2.6,2.6,2.6s2.6-1.2,2.6-2.6c0-0.5-0.1-0.9-0.4-1.3H16c-0.2,0.4-0.4,0.8-0.4,1.3
	c0,1.4,1.2,2.6,2.6,2.6c1.4,0,2.6-1.2,2.6-2.6c0-1.4-1.2-2.6-2.6-2.6H6.1c-0.7,0-1.3-0.6-1.3-1.3v-1.7C5.2,15.1,5.6,15.2,6.1,15.2"
	/>
</svg>
