<?xml version="1.0" encoding="utf-8"?>
<!-- Generator: Adobe Illustrator 19.0.0, SVG Export Plug-In . SVG Version: 6.00 Build 0)  -->
<svg version="1.1" id="Layer_1" xmlns="http://www.w3.org/2000/svg" xmlns:xlink="http://www.w3.org/1999/xlink" x="0px" y="0px"
	 viewBox="0 0 15.7 15.7" style="enable-background:new 0 0 15.7 15.7;" xml:space="preserve">
<style type="text/css">
	.st0{fill:#FFFFFF;}
</style>
<path class="st0" d="M7.8,0C3.5,0,0,3.5,0,7.8c0,4.3,3.5,7.8,7.8,7.8s7.8-3.5,7.8-7.8C15.7,3.5,12.2,0,7.8,0 M11.6,11.9
	c-0.1,0.1-0.3,0.2-0.5,0.2c-0.2,0-0.3-0.1-0.5-0.2L7.4,8.6C7.3,8.5,7.2,8.3,7.2,8.2V3.9c0-0.4,0.3-0.7,0.7-0.7
	c0.4,0,0.7,0.3,0.7,0.7v4l3.1,3.1C11.8,11.2,11.8,11.6,11.6,11.9"/>
</svg>
