<?xml version="1.0" encoding="utf-8"?>
<!-- Generator: Adobe Illustrator 19.0.0, SVG Export Plug-In . SVG Version: 6.00 Build 0)  -->
<svg version="1.1" id="Layer_1" xmlns="http://www.w3.org/2000/svg" xmlns:xlink="http://www.w3.org/1999/xlink" x="0px" y="0px"
	 viewBox="0 0 14 14" style="enable-background:new 0 0 14 14;" xml:space="preserve">
<style type="text/css">
	.st0{fill:#FFFFFF;}
	.st1{fill:#0B1541;}
</style>
<g id="XMLID_1_">
	<path id="XMLID_6_" class="st0" d="M11.9,2C9.2-0.7,4.8-0.7,2,2.1c-2.7,2.7-2.7,7.2,0,9.9c2.7,2.7,7.2,2.7,9.9,0
		c1.3-1.3,2-3.1,2-4.9C14,5.1,13.3,3.4,11.9,2"/>
	<path id="XMLID_5_" class="st1" d="M7,7.6l0.8-0.8l3-3c-0.1,0-0.2-0.1-0.3-0.1H3.5c-0.1,0-0.2,0-0.3,0.1L7,7.6z"/>
	<path id="XMLID_4_" class="st1" d="M11.1,9.8c0-0.1,0.1-0.2,0.1-0.3V4.5c0-0.1,0-0.2-0.1-0.3L8.4,7L11.1,9.8z"/>
	<path id="XMLID_3_" class="st1" d="M2.9,4.2c0,0.1-0.1,0.2-0.1,0.3v4.9c0,0.1,0,0.2,0.1,0.3L5.6,7L2.9,4.2z"/>
	<path id="XMLID_2_" class="st1" d="M8,7.3L7.2,8.2c0,0-0.1,0.1-0.2,0.1s-0.1,0-0.2-0.1L6,7.3l-2.8,2.8c0.1,0,0.2,0.1,0.3,0.1h6.9
		c0.1,0,0.2,0,0.3-0.1L8,7.3z"/>
</g>
</svg>
