<?xml version="1.0" encoding="utf-8"?>
<!-- Generator: Adobe Illustrator 19.0.0, SVG Export Plug-In . SVG Version: 6.00 Build 0)  -->
<svg version="1.1" id="Layer_1" xmlns="http://www.w3.org/2000/svg" xmlns:xlink="http://www.w3.org/1999/xlink" x="0px" y="0px"
	 viewBox="0 0 16.6 16.6" style="enable-background:new 0 0 16.6 16.6;" xml:space="preserve">
<style type="text/css">
	.st0{fill:#28337E;}
</style>
<g id="XMLID_1_">
	<path id="XMLID_5_" class="st0" d="M14.7,14.4c0.4,0,0.7-0.1,0.9-0.3l-4.4-4.4c-0.1,0.1-0.2,0.1-0.3,0.2c-0.3,0.2-0.6,0.4-0.8,0.6
		c-0.2,0.1-0.5,0.3-0.8,0.4c-0.3,0.1-0.7,0.2-1,0.2h0h0c-0.3,0-0.6-0.1-1-0.2c-0.3-0.1-0.6-0.3-0.8-0.4C6.3,10.3,6,10.1,5.7,9.9
		C5.6,9.8,5.5,9.7,5.4,9.7l-4.4,4.4c0.3,0.2,0.6,0.3,0.9,0.3H14.7z"/>
	<path id="XMLID_4_" class="st0" d="M1.3,6.9C1,6.6,0.7,6.4,0.5,6.1v6.7l3.9-3.9C3.6,8.4,2.6,7.7,1.3,6.9"/>
	<path id="XMLID_3_" class="st0" d="M15.2,6.9c-1.2,0.8-2.2,1.5-3,2.1l3.9,3.9V6.1C15.9,6.4,15.6,6.6,15.2,6.9"/>
	<path id="XMLID_2_" class="st0" d="M14.7,2.1H1.9c-0.4,0-0.8,0.2-1,0.5C0.6,2.9,0.5,3.3,0.5,3.7c0,0.4,0.2,0.8,0.5,1.2
		c0.3,0.4,0.7,0.8,1,1c0.2,0.1,0.8,0.6,1.8,1.2c0.5,0.4,1,0.7,1.4,1C5.5,8.4,5.8,8.6,6,8.8c0,0,0.1,0.1,0.1,0.1C6.2,8.9,6.3,9,6.4,9
		c0.2,0.1,0.3,0.2,0.5,0.3C7,9.5,7.2,9.5,7.3,9.7c0.2,0.1,0.3,0.2,0.5,0.2C8,9.9,8.1,10,8.3,10h0h0c0.1,0,0.3,0,0.4-0.1
		c0.2-0.1,0.3-0.1,0.5-0.2c0.2-0.1,0.3-0.2,0.5-0.3C9.8,9.3,10,9.2,10.2,9c0.1-0.1,0.2-0.1,0.2-0.2c0.1,0,0.1-0.1,0.1-0.1
		c0.2-0.1,0.5-0.3,0.9-0.6c0.7-0.5,1.8-1.2,3.2-2.2c0.4-0.3,0.8-0.7,1.1-1.1C16,4.4,16.1,4,16.1,3.5c0-0.4-0.1-0.7-0.4-1
		C15.4,2.3,15.1,2.1,14.7,2.1"/>
</g>
</svg>
