<?xml version="1.0" encoding="utf-8"?>
<!-- Generator: Adobe Illustrator 19.0.0, SVG Export Plug-In . SVG Version: 6.00 Build 0)  -->
<svg version="1.1" id="Layer_1" xmlns="http://www.w3.org/2000/svg" xmlns:xlink="http://www.w3.org/1999/xlink" x="0px" y="0px"
	 viewBox="0 0 14 14" style="enable-background:new 0 0 14 14;" xml:space="preserve">
<style type="text/css">
	.st0{fill:#FFFFFF;}
</style>
<g id="XMLID_1_">
	<polygon id="XMLID_11_" class="st0" points="9.1,0.2 9.1,3.3 12.2,3.3 	"/>
	<path id="XMLID_2_" class="st0" d="M8.7,4.1c-0.2,0-0.4-0.2-0.4-0.4V0H2C1.8,0,1.6,0.2,1.6,0.4v13.2C1.6,13.8,1.8,14,2,14h10
		c0.2,0,0.4-0.2,0.4-0.4V4.1H8.7z M3.3,2.4c0.2-0.5,0.7-0.8,1.2-0.8c0.7,0,1.3,0.6,1.3,1.3c0,0.5-0.4,1-0.8,1.2v0.3
		c0,0.2-0.2,0.4-0.4,0.4C4.2,4.8,4,4.6,4,4.4V3.7c0-0.2,0.2-0.4,0.4-0.4c0.2,0,0.4-0.2,0.4-0.4c0-0.2-0.2-0.4-0.4-0.4
		C4.3,2.5,4.1,2.6,4,2.7C3.9,2.9,3.7,3,3.5,2.9C3.3,2.9,3.2,2.6,3.3,2.4 M4.8,6c0,0.1,0,0.2-0.1,0.3C4.6,6.4,4.5,6.4,4.4,6.4
		c-0.1,0-0.2,0-0.3-0.1C4.1,6.2,4,6.1,4,6s0-0.2,0.1-0.3c0.1-0.1,0.2-0.1,0.3-0.1c0.1,0,0.2,0,0.3,0.1C4.8,5.8,4.8,5.9,4.8,6
		 M10.3,12.3H3.7c-0.2,0-0.4-0.2-0.4-0.4c0-0.2,0.2-0.4,0.4-0.4h6.6c0.2,0,0.4,0.2,0.4,0.4C10.8,12.1,10.6,12.3,10.3,12.3
		 M10.3,10.7H3.7c-0.2,0-0.4-0.2-0.4-0.4c0-0.2,0.2-0.4,0.4-0.4h6.6c0.2,0,0.4,0.2,0.4,0.4C10.8,10.5,10.6,10.7,10.3,10.7 M10.3,9.1
		H3.7c-0.2,0-0.4-0.2-0.4-0.4c0-0.2,0.2-0.4,0.4-0.4h6.6c0.2,0,0.4,0.2,0.4,0.4C10.8,8.9,10.6,9.1,10.3,9.1 M10.3,7.4H6
		C5.8,7.4,5.6,7.2,5.6,7c0-0.2,0.2-0.4,0.4-0.4h4.3c0.2,0,0.4,0.2,0.4,0.4C10.8,7.2,10.6,7.4,10.3,7.4 M10.3,5.8H6
		c-0.2,0-0.4-0.2-0.4-0.4c0-0.2,0.2-0.4,0.4-0.4h4.3c0.2,0,0.4,0.2,0.4,0.4C10.8,5.6,10.6,5.8,10.3,5.8"/>
</g>
</svg>
