<?xml version="1.0" encoding="utf-8"?>
<!-- Generator: Adobe Illustrator 19.0.0, SVG Export Plug-In . SVG Version: 6.00 Build 0)  -->
<svg version="1.1" id="Layer_1" xmlns="http://www.w3.org/2000/svg" xmlns:xlink="http://www.w3.org/1999/xlink" x="0px" y="0px"
	 viewBox="0 0 14 14" style="enable-background:new 0 0 14 14;" xml:space="preserve">
<style type="text/css">
	.st0{fill:#FFFFFF;}
</style>
<path id="XMLID_2_" class="st0" d="M13.5,3.5H11v-3C11,0.2,10.8,0,10.5,0h-10C0.2,0,0,0.2,0,0.5V12c0,1.1,0.9,2,2,2h10
	c1.1,0,2-0.9,2-2V4C14,3.7,13.8,3.5,13.5,3.5 M4,2.5h3c0.3,0,0.5,0.2,0.5,0.5c0,0.3-0.2,0.5-0.5,0.5H4C3.7,3.5,3.5,3.3,3.5,3
	C3.5,2.7,3.7,2.5,4,2.5 M8.5,12h-6C2.2,12,2,11.8,2,11.5C2,11.2,2.2,11,2.5,11h6C8.8,11,9,11.2,9,11.5C9,11.8,8.8,12,8.5,12 M8.5,10
	h-6C2.2,10,2,9.8,2,9.5C2,9.2,2.2,9,2.5,9h6C8.8,9,9,9.2,9,9.5C9,9.8,8.8,10,8.5,10 M8.5,8h-6C2.2,8,2,7.8,2,7.5C2,7.2,2.2,7,2.5,7
	h6C8.8,7,9,7.2,9,7.5C9,7.8,8.8,8,8.5,8 M8.5,6h-6C2.2,6,2,5.8,2,5.5C2,5.2,2.2,5,2.5,5h6C8.8,5,9,5.2,9,5.5C9,5.8,8.8,6,8.5,6
	 M13,12c0,0.6-0.4,1-1,1c-0.6,0-1-0.4-1-1V4.5h2V12z"/>
</svg>
