<?xml version="1.0" encoding="utf-8"?>
<!-- Generator: Adobe Illustrator 19.0.0, SVG Export Plug-In . SVG Version: 6.00 Build 0)  -->
<svg version="1.1" id="Layer_1" xmlns="http://www.w3.org/2000/svg" xmlns:xlink="http://www.w3.org/1999/xlink" x="0px" y="0px"
	 viewBox="0 0 15.8 15.9" style="enable-background:new 0 0 15.8 15.9;" xml:space="preserve">
<style type="text/css">
	.st0{fill:#BFC0C1;}
</style>
<g id="XMLID_1_">
	<path class="st0" d="M15.3,12.5l-2.6-2.6c0.5-1,0.8-2.1,0.8-3.2c0-3.7-3-6.7-6.7-6.7C3,0,0,3,0,6.7c0,3.7,3,6.7,6.7,6.7
		c1.1,0,2.2-0.3,3.2-0.8l2.6,2.6c0.8,0.8,2,0.8,2.8,0C16,14.5,16,13.3,15.3,12.5 M1.6,6.7c0-2.9,2.3-5.1,5.1-5.1
		c2.9,0,5.1,2.3,5.1,5.1c0,2.9-2.3,5.1-5.1,5.1C3.9,11.9,1.6,9.6,1.6,6.7"/>
</g>
</svg>
