<?xml version="1.0" encoding="utf-8"?>
<!-- Generator: Adobe Illustrator 19.0.0, SVG Export Plug-In . SVG Version: 6.00 Build 0)  -->
<svg version="1.1" id="Layer_1" xmlns="http://www.w3.org/2000/svg" xmlns:xlink="http://www.w3.org/1999/xlink" x="0px" y="0px"
	 viewBox="0 0 14 14" style="enable-background:new 0 0 14 14;" xml:space="preserve">
<style type="text/css">
	.st0{fill:#FFFFFF;}
</style>
<g id="XMLID_1_">
	<polygon id="XMLID_7_" class="st0" points="8.8,0 8.8,3.5 12.3,3.5 	"/>
	<path id="XMLID_2_" class="st0" d="M7.9,3.5V0H2.6C2.1,0,1.7,0.4,1.7,0.9v12.3c0,0.5,0.4,0.9,0.9,0.9h8.8c0.5,0,0.9-0.4,0.9-0.9
		V4.4H8.7C8.3,4.4,7.9,4,7.9,3.5 M3.9,2.6h2.6C6.8,2.6,7,2.8,7,3.1S6.8,3.5,6.6,3.5H3.9c-0.2,0-0.4-0.2-0.4-0.4S3.7,2.6,3.9,2.6
		 M3.5,4.8c0-0.2,0.2-0.4,0.4-0.4h2.6C6.8,4.4,7,4.6,7,4.8S6.8,5.3,6.6,5.3H3.9C3.7,5.3,3.5,5.1,3.5,4.8 M9.6,9
		c0.1,0.2,0,0.3-0.1,0.4l-0.9,1l0.2,1.4c0,0.2,0,0.3-0.2,0.4c-0.1,0.1-0.2,0.1-0.3,0.1c-0.1,0-0.1,0-0.2-0.1L7,11.6l-1.1,0.6
		c-0.1,0.1-0.3,0.1-0.5,0c-0.1-0.1-0.2-0.3-0.2-0.4l0.2-1.4l-0.9-1C4.4,9.3,4.3,9.1,4.4,9c0.1-0.2,0.2-0.3,0.3-0.3L6,8.5l0.6-1.2
		c0.1-0.3,0.6-0.3,0.8,0L8,8.5l1.3,0.2C9.4,8.7,9.6,8.8,9.6,9"/>
</g>
</svg>
