<svg width="100" height="85" viewBox="0 0 100 85" fill="none" xmlns="http://www.w3.org/2000/svg">
<path fill-rule="evenodd" clip-rule="evenodd" d="M34.374 75.0012H21.8722C9.81109 75.0012 -0.00468589 65.1901 1.67823e-06 53.129C1.67823e-06 44.5554 4.95945 36.8959 12.5814 33.338C12.5252 32.6302 12.4971 31.9411 12.4971 31.252C12.4971 14.0205 26.5176 0 43.7491 0C56.2087 0 67.4354 7.44387 72.3761 18.7597C87.6529 19.0269 100 31.538 100 46.8804C100 61.0181 89.4248 73.0043 75.3996 74.7621C75.3879 74.7644 75.3762 74.7656 75.3645 74.7668C75.3528 74.768 75.341 74.7691 75.3293 74.7715C75.2356 74.7809 72.9715 75.0059 69.2073 75.0059H65.626C63.901 75.0059 62.4994 73.6043 62.4994 71.8792C62.4994 70.1542 63.901 68.7526 65.626 68.7526H69.2073C72.3377 68.7526 74.33 68.5803 74.6535 68.5524L74.6684 68.5511C85.5529 67.1682 93.7515 57.854 93.7515 46.8757C93.7515 34.8099 83.9357 24.9988 71.8746 24.9988C71.4667 24.9988 71.0495 25.0223 70.637 25.0691C69.1839 25.2332 67.8151 24.3754 67.3323 22.9972C63.8213 12.9799 54.343 6.24854 43.7491 6.24854C29.963 6.24854 18.7503 17.4612 18.7503 31.2474C18.7503 32.3958 18.8487 33.5724 19.055 34.8427C19.3034 36.3568 18.4081 37.8287 16.9503 38.3115C10.547 40.4256 6.24854 46.3788 6.24854 53.1243C6.24854 61.74 13.2565 68.7479 21.8722 68.7479H34.374C36.099 68.7479 37.5006 70.1495 37.5006 71.8745C37.5006 73.5996 36.099 75.0012 34.374 75.0012ZM53.1243 81.2497C53.1243 82.9747 51.7227 84.3763 49.9976 84.3763C48.2726 84.3763 46.871 82.9747 46.8757 81.2497V51.2914L39.7084 58.4587C38.485 59.6775 36.5068 59.6822 35.288 58.4587C34.0693 57.2353 34.0693 55.2571 35.288 54.0383L47.7851 41.5413C47.8601 41.4663 47.9398 41.396 48.0195 41.3303C48.0359 41.3186 48.0511 41.3069 48.0664 41.2952C48.0816 41.2834 48.0968 41.2717 48.1132 41.26C48.1601 41.2225 48.2117 41.1803 48.2632 41.1475C48.3007 41.1194 48.3429 41.096 48.3851 41.0725C48.4007 41.0631 48.4164 41.0532 48.432 41.0434C48.4632 41.0236 48.4945 41.0038 48.5257 40.9881C48.5679 40.9647 48.6101 40.946 48.6523 40.9272L48.6523 40.9272C48.6717 40.9184 48.6904 40.9089 48.7089 40.8996C48.7397 40.884 48.7701 40.8686 48.8023 40.8569C48.8445 40.8381 48.8867 40.8241 48.9289 40.81C48.957 40.8006 48.984 40.7912 49.0109 40.7819C49.0379 40.7725 49.0648 40.7631 49.0929 40.7538C49.1351 40.7397 49.1726 40.7303 49.2148 40.7209C49.232 40.7166 49.2492 40.7119 49.2665 40.7071C49.3059 40.6963 49.3459 40.6853 49.3883 40.6788C49.4117 40.6764 49.434 40.6729 49.4562 40.6694C49.4785 40.6659 49.5008 40.6624 49.5242 40.66C49.5804 40.6506 49.6367 40.6413 49.693 40.6366C49.7633 40.6319 49.8383 40.6272 49.9133 40.6272C49.9273 40.6272 49.9414 40.626 49.9555 40.6249C49.9695 40.6237 49.9836 40.6225 49.9976 40.6225C50.0117 40.6225 50.0258 40.6237 50.0398 40.6249C50.0539 40.626 50.068 40.6272 50.082 40.6272C50.1523 40.6272 50.2273 40.6272 50.3023 40.6366C50.3586 40.6413 50.4148 40.6506 50.4711 40.66C50.518 40.6647 50.5602 40.6694 50.607 40.6788C50.6466 40.6853 50.6884 40.6966 50.7293 40.7075C50.7466 40.7122 50.7637 40.7168 50.7805 40.7209C50.8016 40.728 50.8215 40.7327 50.8414 40.7374C50.8613 40.742 50.8812 40.7467 50.9023 40.7538C50.938 40.7627 50.9717 40.7753 51.006 40.7882C51.0258 40.7956 51.0458 40.8031 51.0664 40.81C51.1086 40.8241 51.1508 40.8381 51.193 40.8569C51.2188 40.8686 51.2434 40.8803 51.268 40.892C51.2926 40.9038 51.3172 40.9155 51.343 40.9272C51.3852 40.9459 51.4273 40.9647 51.4695 40.9881L51.6102 41.0725C51.6524 41.096 51.6899 41.1194 51.732 41.1475C51.7578 41.1663 51.7824 41.185 51.807 41.2037C51.8316 41.2225 51.8563 41.2413 51.882 41.26L51.8823 41.2602C51.915 41.2836 51.9477 41.3069 51.9758 41.3303C52.0602 41.396 52.1352 41.4663 52.2102 41.5413L64.7072 54.0383C65.926 55.2618 65.926 57.2399 64.7072 58.4587C64.0979 59.0681 63.2963 59.3728 62.4994 59.3728C61.7025 59.3728 60.9009 59.0681 60.2915 58.4587L53.1243 51.2914V81.2497Z" fill="#999999"/>
</svg>
