<svg width="214" height="180" viewBox="0 0 214 180" fill="none" xmlns="http://www.w3.org/2000/svg">
<path fill-rule="evenodd" clip-rule="evenodd" d="M73.33 160H46.66C20.93 160 -0.0100062 139.07 3.58716e-06 113.34C3.58716e-06 95.05 10.58 78.71 26.84 71.12C26.72 69.61 26.66 68.14 26.66 66.67C26.66 29.91 56.57 0 93.33 0C119.91 0 143.86 15.88 154.4 40.02C186.99 40.59 213.33 67.28 213.33 100.01C213.33 130.17 190.77 155.74 160.85 159.49C160.827 159.495 160.803 159.497 160.78 159.5C160.753 159.502 160.727 159.505 160.7 159.51C160.5 159.53 155.67 160.01 147.64 160.01H140C136.32 160.01 133.33 157.02 133.33 153.34C133.33 149.66 136.32 146.67 140 146.67H147.64C154.317 146.67 158.567 146.303 159.258 146.243L159.29 146.24C182.51 143.29 200 123.42 200 100C200 74.26 179.06 53.33 153.33 53.33C152.46 53.33 151.57 53.38 150.69 53.48C147.59 53.83 144.67 52 143.64 49.06C136.15 27.69 115.93 13.33 93.33 13.33C63.92 13.33 40 37.25 40 66.66C40 69.11 40.21 71.62 40.65 74.33C41.18 77.56 39.27 80.7 36.16 81.73C22.5 86.24 13.33 98.94 13.33 113.33C13.33 131.71 28.28 146.66 46.66 146.66H73.33C77.01 146.66 80 149.65 80 153.33C80 157.01 77.01 160 73.33 160ZM113.33 173.33C113.33 177.01 110.34 180 106.66 180C102.98 180 99.99 177.01 100 173.33V109.42L84.71 124.71C82.1 127.31 77.88 127.32 75.28 124.71C72.68 122.1 72.68 117.88 75.28 115.28L101.94 88.62C102.1 88.46 102.27 88.31 102.44 88.17C102.475 88.145 102.507 88.1201 102.54 88.0951C102.572 88.0701 102.605 88.045 102.64 88.02L102.667 87.9984C102.76 87.9241 102.86 87.8438 102.96 87.78C103.04 87.72 103.13 87.67 103.22 87.62C103.274 87.5874 103.329 87.5518 103.383 87.5181C103.429 87.4898 103.474 87.4628 103.52 87.44C103.61 87.3901 103.7 87.3501 103.79 87.3102L103.79 87.31C103.9 87.26 104 87.2 104.11 87.16C104.158 87.1385 104.207 87.1198 104.255 87.1025C104.297 87.0876 104.339 87.0738 104.38 87.06C104.454 87.0352 104.525 87.0105 104.596 86.9858C104.64 86.9705 104.684 86.9553 104.73 86.94C104.82 86.91 104.9 86.89 104.99 86.87C105.11 86.84 105.23 86.8 105.36 86.78C105.46 86.77 105.55 86.75 105.65 86.74C105.77 86.72 105.89 86.7 106.01 86.69C106.16 86.68 106.32 86.67 106.48 86.67C106.51 86.67 106.54 86.6675 106.57 86.665C106.6 86.6625 106.63 86.66 106.66 86.66C106.69 86.66 106.72 86.6625 106.75 86.665C106.78 86.6675 106.81 86.67 106.84 86.67C106.99 86.67 107.15 86.67 107.31 86.69C107.43 86.7 107.55 86.72 107.67 86.74C107.77 86.75 107.86 86.76 107.96 86.78C108.08 86.8 108.21 86.84 108.33 86.87C108.375 86.885 108.417 86.895 108.46 86.905C108.503 86.915 108.545 86.925 108.59 86.94C108.71 86.97 108.82 87.02 108.94 87.06C109.03 87.09 109.12 87.12 109.21 87.16C109.265 87.185 109.317 87.21 109.37 87.235C109.423 87.26 109.475 87.285 109.53 87.31C109.582 87.3331 109.634 87.3563 109.686 87.3813C109.724 87.3996 109.762 87.4189 109.8 87.44L110.1 87.62C110.19 87.67 110.27 87.72 110.36 87.78C110.47 87.86 110.57 87.94 110.68 88.02C110.75 88.07 110.82 88.12 110.88 88.17C111.06 88.31 111.22 88.46 111.38 88.62L138.04 115.28C140.64 117.89 140.64 122.11 138.04 124.71C136.74 126.01 135.03 126.66 133.33 126.66C131.63 126.66 129.92 126.01 128.62 124.71L113.33 109.42V173.33Z" fill="#999999"/>
</svg>
