<svg id="Layer_1" data-name="Layer 1" xmlns="http://www.w3.org/2000/svg" viewBox="0 0 17 15"><defs><style>.cls-1{fill:#fff;}</style></defs><path class="cls-1" d="M4.44,10a1.39,1.39,0,0,0-1.94.21,1.31,1.31,0,0,0-.29,1,1.3,1.3,0,0,0,.51.9,1.39,1.39,0,0,0,.86.29,1.37,1.37,0,0,0,1.07-.5,1.32,1.32,0,0,0,.3-1,1.3,1.3,0,0,0-.51-.9Zm-.27,1.5a.76.76,0,0,1-.59.28.78.78,0,0,1-.47-.16.77.77,0,0,1-.28-.49A.73.73,0,0,1,3,10.59a.74.74,0,0,1,.59-.28.81.81,0,0,1,.47.16.73.73,0,0,1,.27.49.68.68,0,0,1-.15.53Zm0,0"/><path class="cls-1" d="M10,6.83a1.38,1.38,0,0,0,.6-.13,1.36,1.36,0,0,0,.7-.77,1.32,1.32,0,0,0-.06-1A1.39,1.39,0,0,0,10,4.14a1.31,1.31,0,0,0-.59.14,1.32,1.32,0,0,0-.65,1.79A1.4,1.4,0,0,0,10,6.83ZM9.24,5.25a.73.73,0,0,1,.39-.42A.71.71,0,0,1,10,4.76a.76.76,0,0,1,.68.41.7.7,0,0,1,0,.55.69.69,0,0,1-.38.42.72.72,0,0,1-.33.07.75.75,0,0,1-.67-.41.7.7,0,0,1,0-.55Zm0,0"/><path class="cls-1" d="M6.54,4.65a1.55,1.55,0,0,0,.31,0A1.37,1.37,0,0,0,8.19,3.64a1.29,1.29,0,0,0-.18-1A1.37,1.37,0,0,0,7.15,2a1.55,1.55,0,0,0-.31,0A1.37,1.37,0,0,0,5.5,3a1.29,1.29,0,0,0,.18,1,1.34,1.34,0,0,0,.86.6ZM6.11,3.18a.74.74,0,0,1,.73-.56H7A.74.74,0,0,1,7.48,3a.69.69,0,0,1,.1.54.76.76,0,0,1-.73.57l-.17,0a.73.73,0,0,1-.57-.87Zm0,0"/><path class="cls-1" d="M4.05,5.42a1.34,1.34,0,0,0,.51-.9,1.32,1.32,0,0,0-.3-1A1.37,1.37,0,0,0,3.19,3a1.39,1.39,0,0,0-.86.29,1.3,1.3,0,0,0-.51.9,1.31,1.31,0,0,0,.29,1,1.39,1.39,0,0,0,1.08.5,1.42,1.42,0,0,0,.86-.29ZM2.6,4.82a.73.73,0,0,1-.16-.53.71.71,0,0,1,.28-.49.78.78,0,0,1,.47-.16.76.76,0,0,1,.59.28.68.68,0,0,1,.15.53.73.73,0,0,1-.27.49.81.81,0,0,1-.47.16.74.74,0,0,1-.59-.28Zm0,0"/><path class="cls-1" d="M16.88,2.41a.38.38,0,0,0-.3-.12c-.18,0-.66,0-3.55,2.41l-.17.15a7.69,7.69,0,0,0-2.59-3.36A7.84,7.84,0,0,0,5.65,0h0A7.71,7.71,0,0,0,2.06,1,3.51,3.51,0,0,0,0,3.9,2.62,2.62,0,0,0,1.37,6.22c.5.37.89.65.89,1.28s-.39.91-.89,1.27A2.65,2.65,0,0,0,0,11.09,3.49,3.49,0,0,0,2.06,14a7.64,7.64,0,0,0,3.6,1h0a7.75,7.75,0,0,0,5.44-2.19,7.38,7.38,0,0,0,2.26-5.23L14.75,6c.73-.87,1.3-1.59,1.68-2.14.51-.73.73-1.17.45-1.44Zm-6.22,10a7.12,7.12,0,0,1-5,2h0c-2,0-5-1.38-5-3.29A2,2,0,0,1,1.74,9.27,2.11,2.11,0,0,0,2.89,7.5,2.11,2.11,0,0,0,1.74,5.73,2.05,2.05,0,0,1,.63,3.9,3,3,0,0,1,2.38,1.55,7,7,0,0,1,5.65.62h0A7.11,7.11,0,0,1,9.89,2a7,7,0,0,1,2.46,3.29C11,6.45,9.52,7.79,8.42,8.87a2.41,2.41,0,0,0-2.26,2.31c-.15.74-.25,1.1-.84,1.15a.31.31,0,0,0-.28.26.3.3,0,0,0,.19.33,5.63,5.63,0,0,0,2,.38h0a3.26,3.26,0,0,0,1.86-.52,3.13,3.13,0,0,0,1.26-2c.72-.71,1.54-1.57,2.35-2.46a6.78,6.78,0,0,1-2,4Zm-1-1.64a2.36,2.36,0,0,1-2.49,1.95h0a5.45,5.45,0,0,1-1-.1,2.51,2.51,0,0,0,.53-1.28c.17-.83.33-1.62,1.67-1.81ZM14,5.86c-1.24,1.46-2.75,3.09-4,4.34L9.85,10,9,9.17c1.12-1.1,2.56-2.41,3.91-3.56l.46-.39a24,24,0,0,1,2.8-2.13A22,22,0,0,1,14,5.86Zm0,0"/></svg>