<svg id="Layer_1" data-name="Layer 1" xmlns="http://www.w3.org/2000/svg" viewBox="0 0 13.16 14.17"><defs><style>.cls-1{fill:#fff;}</style></defs><path class="cls-1" d="M13.48,9H5.67a.82.82,0,0,1-.82-.82V3.89l9.45,1.3V8.13A.83.83,0,0,1,13.48,9Zm.42,4a.8.8,0,1,1-.8-.8A.8.8,0,0,1,13.9,13ZM7.63,13a.8.8,0,0,1-.8.8.8.8,0,1,1,0-1.6A.8.8,0,0,1,7.63,13Zm-2-3.25h7.81a1.6,1.6,0,0,0,1.6-1.6V4.72h0v0h0v0h0v0h0v0h-.14s0,0,0,0h0L4.85,3.1V1.68h0s0,0,0,0V1.57h0s0,0,0,0h0s0,0,0,0h0v0l0,0h0l0,0,0,0h0l0,0h0l0,0L2.46.45A.38.38,0,0,0,2,.66a.38.38,0,0,0,.21.51L4.06,2v8.61a1.61,1.61,0,0,0,1.4,1.59,1.62,1.62,0,0,0-.22.82,1.59,1.59,0,0,0,3.17,0,1.55,1.55,0,0,0-.22-.8h3.54a1.55,1.55,0,0,0-.22.8,1.59,1.59,0,1,0,1.58-1.59H5.67a.82.82,0,0,1-.82-.82V9.52A1.62,1.62,0,0,0,5.67,9.74Z" transform="translate(-1.92 -0.42)"/></svg>