<svg width="35" height="30" viewBox="0 0 35 30" fill="none" xmlns="http://www.w3.org/2000/svg">
<path fill-rule="evenodd" clip-rule="evenodd" d="M12.0309 26.2504H7.65528C3.43388 26.2504 -0.00164006 22.8165 5.87381e-07 18.5951C5.87381e-07 15.5944 1.73581 12.9136 4.40351 11.6683C4.38382 11.4206 4.37398 11.1794 4.37398 10.9382C4.37398 4.90719 9.28116 0 15.3122 0C19.673 0 23.6024 2.60535 25.3316 6.56588C30.6785 6.6594 35 11.0383 35 16.4081C35 21.3563 31.2987 25.5515 26.3899 26.1667C26.3817 26.1684 26.3735 26.1684 26.3653 26.17C26.3324 26.1733 25.54 26.2521 24.2226 26.2521H22.9691C22.3653 26.2521 21.8748 25.7615 21.8748 25.1577C21.8748 24.554 22.3653 24.0634 22.9691 24.0634H24.2226C25.3182 24.0634 26.0155 24.0031 26.1287 23.9933L26.1339 23.9929C29.9435 23.5089 32.813 20.2489 32.813 16.4065C32.813 12.1835 29.3775 8.74959 25.1561 8.74959C25.0134 8.74959 24.8673 8.75779 24.723 8.7742C24.2144 8.83162 23.7353 8.53138 23.5663 8.04903C22.3375 4.54296 19.0201 2.18699 15.3122 2.18699C10.487 2.18699 6.5626 6.11142 6.5626 10.9366C6.5626 11.3385 6.59706 11.7503 6.66925 12.195C6.7562 12.7249 6.44284 13.24 5.93259 13.409C3.69146 14.149 2.18699 16.2326 2.18699 18.5935C2.18699 21.609 4.63976 24.0618 7.65528 24.0618H12.0309C12.6346 24.0618 13.1252 24.5523 13.1252 25.1561C13.1252 25.7599 12.6346 26.2504 12.0309 26.2504ZM18.5935 28.4374C18.5935 29.0411 18.1029 29.5317 17.4992 29.5317C16.8954 29.5317 16.4049 29.0411 16.4065 28.4374V17.952L13.8979 20.4605C13.4697 20.8871 12.7774 20.8888 12.3508 20.4605C11.9242 20.0323 11.9242 19.34 12.3508 18.9134L16.7248 14.5394C16.751 14.5132 16.7789 14.4886 16.8068 14.4656C16.8126 14.4615 16.8179 14.4574 16.8232 14.4533C16.8286 14.4492 16.8339 14.4451 16.8396 14.441L16.8441 14.4374C16.8593 14.4253 16.8757 14.4121 16.8921 14.4016C16.9053 14.3918 16.92 14.3836 16.9348 14.3754C16.9403 14.3721 16.9457 14.3686 16.9512 14.3652C16.9621 14.3582 16.9731 14.3513 16.984 14.3458C16.9988 14.3376 17.0135 14.3311 17.0283 14.3245L17.0283 14.3245C17.0351 14.3214 17.0416 14.3181 17.0481 14.3148C17.0589 14.3094 17.0695 14.304 17.0808 14.2999C17.0956 14.2933 17.1103 14.2884 17.1251 14.2835C17.1349 14.2802 17.1444 14.2769 17.1538 14.2737C17.1633 14.2704 17.1727 14.2671 17.1825 14.2638C17.1973 14.2589 17.2104 14.2556 17.2252 14.2523C17.2312 14.2508 17.2372 14.2492 17.2433 14.2475C17.257 14.2437 17.2711 14.2398 17.2859 14.2376C17.2941 14.2367 17.3019 14.2355 17.3097 14.2343C17.3175 14.2331 17.3253 14.2318 17.3335 14.231C17.3532 14.2277 17.3728 14.2244 17.3925 14.2228C17.4171 14.2212 17.4434 14.2195 17.4696 14.2195C17.4746 14.2195 17.4795 14.2191 17.4844 14.2187C17.4893 14.2183 17.4943 14.2179 17.4992 14.2179C17.5041 14.2179 17.509 14.2183 17.5139 14.2187C17.5189 14.2191 17.5238 14.2195 17.5287 14.2195C17.5533 14.2195 17.5796 14.2195 17.6058 14.2228C17.6255 14.2244 17.6452 14.2277 17.6649 14.231C17.6813 14.2326 17.6961 14.2343 17.7125 14.2376C17.7263 14.2399 17.7409 14.2438 17.7553 14.2476C17.7613 14.2493 17.7673 14.2509 17.7732 14.2523C17.7805 14.2548 17.7875 14.2564 17.7945 14.2581C17.8015 14.2597 17.8084 14.2614 17.8158 14.2638C17.8283 14.2669 17.8401 14.2714 17.8521 14.2759C17.859 14.2785 17.866 14.2811 17.8732 14.2835C17.888 14.2884 17.9028 14.2933 17.9175 14.2999C17.9266 14.304 17.9352 14.3081 17.9438 14.3122C17.9524 14.3163 17.961 14.3204 17.97 14.3245C17.9848 14.3311 17.9996 14.3376 18.0143 14.3458L18.0636 14.3754C18.0783 14.3836 18.0914 14.3918 18.1062 14.4016C18.1152 14.4082 18.1239 14.4148 18.1325 14.4213C18.1411 14.4279 18.1497 14.4344 18.1587 14.441C18.1702 14.4492 18.1817 14.4574 18.1915 14.4656C18.2211 14.4886 18.2473 14.5132 18.2736 14.5394L22.6475 18.9134C23.0741 19.3416 23.0741 20.034 22.6475 20.4605C22.4342 20.6738 22.1537 20.7805 21.8748 20.7805C21.5959 20.7805 21.3153 20.6738 21.102 20.4605L18.5935 17.952V28.4374Z" fill="#999999"/>
</svg>
