<svg width="35" height="36" viewBox="0 0 35 36" fill="none" xmlns="http://www.w3.org/2000/svg">
<path d="M29.5 11C27.9646 11 26.6641 10.4672 25.5984 9.40156C24.5328 8.33594 24 7.03542 24 5.5C24 3.97604 24.5328 2.67839 25.5984 1.60703C26.6641 0.535677 27.9646 0 29.5 0C31.024 0 32.3216 0.535677 33.393 1.60703C34.4643 2.67839 35 3.97604 35 5.5C35 7.03542 34.4643 8.33594 33.393 9.40156C32.3216 10.4672 31.024 11 29.5 11ZM29.5 9.625C30.6458 9.625 31.6198 9.22396 32.4219 8.42188C33.224 7.61979 33.625 6.64583 33.625 5.5C33.625 4.35417 33.224 3.38021 32.4219 2.57812C31.6198 1.77604 30.6458 1.375 29.5 1.375C28.3542 1.375 27.3802 1.77604 26.5781 2.57812C25.776 3.38021 25.375 4.35417 25.375 5.5C25.375 6.64583 25.776 7.61979 26.5781 8.42188C27.3802 9.22396 28.3542 9.625 29.5 9.625ZM31.0641 8.06094L32.0438 7.08125L30.1875 5.225V2.75H28.8125V5.79219L31.0641 8.06094Z" fill="#999999"/>
<path fill-rule="evenodd" clip-rule="evenodd" d="M12.0309 32.2504H7.65528C3.43388 32.2504 -0.00164006 28.8165 5.87381e-07 24.5951C5.87381e-07 21.5944 1.73581 18.9136 4.40351 17.6683C4.38382 17.4206 4.37398 17.1794 4.37398 16.9382C4.37398 10.9072 9.28116 6 15.3122 6C19.673 6 23.6024 8.60535 25.3316 12.5659C30.6785 12.6594 35 17.0383 35 22.4081C35 27.3563 31.2987 31.5515 26.3899 32.1667C26.3817 32.1684 26.3735 32.1684 26.3653 32.17C26.3324 32.1733 25.54 32.2521 24.2226 32.2521H22.9691C22.3653 32.2521 21.8748 31.7615 21.8748 31.1577C21.8748 30.554 22.3653 30.0634 22.9691 30.0634H24.2226C25.3182 30.0634 26.0155 30.0031 26.1287 29.9933L26.1339 29.9929C29.9435 29.5089 32.813 26.2489 32.813 22.4065C32.813 18.1835 29.3775 14.7496 25.1561 14.7496C25.0134 14.7496 24.8673 14.7578 24.723 14.7742C24.2144 14.8316 23.7353 14.5314 23.5663 14.049C22.3375 10.543 19.0201 8.18699 15.3122 8.18699C10.487 8.18699 6.5626 12.1114 6.5626 16.9366C6.5626 17.3385 6.59706 17.7503 6.66925 18.195C6.7562 18.7249 6.44284 19.24 5.93259 19.409C3.69146 20.149 2.18699 22.2326 2.18699 24.5935C2.18699 27.609 4.63976 30.0618 7.65528 30.0618H12.0309C12.6346 30.0618 13.1252 30.5523 13.1252 31.1561C13.1252 31.7599 12.6346 32.2504 12.0309 32.2504ZM18.5935 34.4374C18.5935 35.0411 18.1029 35.5317 17.4992 35.5317C16.8954 35.5317 16.4049 35.0411 16.4065 34.4374V23.952L13.8979 26.4605C13.4697 26.8871 12.7774 26.8888 12.3508 26.4605C11.9242 26.0323 11.9242 25.34 12.3508 24.9134L16.7248 20.5394C16.751 20.5132 16.7789 20.4886 16.8068 20.4656C16.8126 20.4615 16.8179 20.4574 16.8232 20.4533C16.8286 20.4492 16.8339 20.4451 16.8396 20.441L16.8441 20.4374C16.8593 20.4253 16.8757 20.4121 16.8921 20.4016C16.9053 20.3918 16.92 20.3836 16.9348 20.3754C16.9403 20.3721 16.9457 20.3686 16.9512 20.3652C16.9621 20.3582 16.9731 20.3513 16.984 20.3458C16.9988 20.3376 17.0135 20.3311 17.0283 20.3245L17.0283 20.3245C17.0351 20.3214 17.0416 20.3181 17.0481 20.3148C17.0589 20.3094 17.0695 20.304 17.0808 20.2999C17.0956 20.2933 17.1103 20.2884 17.1251 20.2835C17.1349 20.2802 17.1444 20.2769 17.1538 20.2737C17.1633 20.2704 17.1727 20.2671 17.1825 20.2638C17.1973 20.2589 17.2104 20.2556 17.2252 20.2523C17.2312 20.2508 17.2372 20.2492 17.2433 20.2475C17.257 20.2437 17.2711 20.2398 17.2859 20.2376C17.2941 20.2367 17.3019 20.2355 17.3097 20.2343C17.3175 20.2331 17.3253 20.2318 17.3335 20.231C17.3532 20.2277 17.3728 20.2244 17.3925 20.2228C17.4171 20.2212 17.4434 20.2195 17.4696 20.2195C17.4746 20.2195 17.4795 20.2191 17.4844 20.2187C17.4893 20.2183 17.4943 20.2179 17.4992 20.2179C17.5041 20.2179 17.509 20.2183 17.5139 20.2187C17.5189 20.2191 17.5238 20.2195 17.5287 20.2195C17.5533 20.2195 17.5796 20.2195 17.6058 20.2228C17.6255 20.2244 17.6452 20.2277 17.6649 20.231C17.6813 20.2326 17.6961 20.2343 17.7125 20.2376C17.7263 20.2399 17.7409 20.2438 17.7553 20.2476C17.7613 20.2493 17.7673 20.2509 17.7732 20.2523C17.7805 20.2548 17.7875 20.2564 17.7945 20.2581C17.8015 20.2597 17.8084 20.2614 17.8158 20.2638C17.8283 20.2669 17.8401 20.2714 17.8521 20.2759C17.859 20.2785 17.866 20.2811 17.8732 20.2835C17.888 20.2884 17.9028 20.2933 17.9175 20.2999C17.9266 20.304 17.9352 20.3081 17.9438 20.3122C17.9524 20.3163 17.961 20.3204 17.97 20.3245C17.9848 20.3311 17.9996 20.3376 18.0143 20.3458L18.0636 20.3754C18.0783 20.3836 18.0914 20.3918 18.1062 20.4016C18.1152 20.4082 18.1239 20.4148 18.1325 20.4213C18.1411 20.4279 18.1497 20.4344 18.1587 20.441C18.1702 20.4492 18.1817 20.4574 18.1915 20.4656C18.2211 20.4886 18.2473 20.5132 18.2736 20.5394L22.6475 24.9134C23.0741 25.3416 23.0741 26.034 22.6475 26.4605C22.4342 26.6738 22.1537 26.7805 21.8748 26.7805C21.5959 26.7805 21.3153 26.6738 21.102 26.4605L18.5935 23.952V34.4374Z" fill="#999999"/>
</svg>
