<svg id="Layer_1" data-name="Layer 1" xmlns="http://www.w3.org/2000/svg" viewBox="0 0 15 15"><defs><style>.cls-1{fill:#fff;}</style></defs><path class="cls-1" d="M12.36,10.45l-.38.37a2,2,0,0,1-1.89.54,6.44,6.44,0,0,1-1.93-.86A9,9,0,0,1,6.64,9.27,8.36,8.36,0,0,1,5.5,7.89a7.35,7.35,0,0,1-.86-1.73,2,2,0,0,1,.51-2l.44-.45a.33.33,0,0,1,.45,0H6l1.4,1.41a.32.32,0,0,1,0,.45h0l-.82.82a.67.67,0,0,0-.07.88,9.84,9.84,0,0,0,1,1.15,9,9,0,0,0,1.3,1.09A.67.67,0,0,0,9.7,9.4l.8-.81a.31.31,0,0,1,.45,0h0L12.36,10a.33.33,0,0,1,0,.45ZM13.8,2.2A7.48,7.48,0,1,0,16,7.5a7.49,7.49,0,0,0-2.2-5.3Z" transform="translate(-1 0)"/></svg>